<svg width="1806" height="2377" viewBox="0 0 1806 2377" fill="none" xmlns="http://www.w3.org/2000/svg">
<g filter="url(#filter0_f_578_137)">
<ellipse cx="947.5" cy="1360.55" rx="5.5" ry="4.5" fill="#1C0D3B" style="mix-blend-mode:lighten"/>
<ellipse cx="956.5" cy="840.55" rx="5.5" ry="4.5" fill="#1C0D3B" style="mix-blend-mode:lighten"/>
<ellipse cx="307.5" cy="1584.55" rx="5.5" ry="4.5" fill="#1C0D3B" style="mix-blend-mode:lighten"/>
<ellipse cx="644.5" cy="1457.55" rx="5.5" ry="4.5" fill="#1C0D3B" style="mix-blend-mode:lighten"/>
<ellipse cx="792.5" cy="1356.55" rx="5.5" ry="4.5" fill="#1C0D3B" style="mix-blend-mode:lighten"/>
<ellipse cx="801.5" cy="836.55" rx="5.5" ry="4.5" fill="#1C0D3B" style="mix-blend-mode:lighten"/>
<ellipse cx="152.5" cy="1580.55" rx="5.5" ry="4.5" fill="#1C0D3B" style="mix-blend-mode:lighten"/>
<ellipse cx="489.5" cy="1453.55" rx="5.5" ry="4.5" fill="#1C0D3B" style="mix-blend-mode:lighten"/>
<ellipse cx="1023.5" cy="1202.55" rx="4.5" ry="3.5" fill="#1C0D3B" style="mix-blend-mode:lighten"/>
<ellipse cx="383.5" cy="1872.55" rx="4.5" ry="3.5" fill="#1C0D3B" style="mix-blend-mode:lighten"/>
<ellipse cx="720.5" cy="1745.55" rx="4.5" ry="3.5" fill="#1C0D3B" style="mix-blend-mode:lighten"/>
<ellipse cx="8.5" cy="1195.55" rx="4.5" ry="3.5" fill="#1C0D3B" style="mix-blend-mode:lighten"/>
<ellipse cx="972.5" cy="1324.55" rx="4.5" ry="3.5" fill="#1C0D3B" style="mix-blend-mode:lighten"/>
<ellipse cx="981.5" cy="804.55" rx="4.5" ry="3.5" fill="#1C0D3B" style="mix-blend-mode:lighten"/>
<ellipse cx="332.5" cy="1548.55" rx="4.5" ry="3.5" fill="#1C0D3B" style="mix-blend-mode:lighten"/>
<ellipse cx="669.5" cy="1421.55" rx="4.5" ry="3.5" fill="#1C0D3B" style="mix-blend-mode:lighten"/>
<ellipse cx="1179.5" cy="1289.55" rx="4.5" ry="3.5" fill="#1C0D3B" style="mix-blend-mode:lighten"/>
<ellipse cx="1188.5" cy="769.55" rx="4.5" ry="3.5" fill="#1C0D3B" style="mix-blend-mode:lighten"/>
<ellipse cx="164.5" cy="1282.55" rx="4.5" ry="3.5" fill="#1C0D3B" style="mix-blend-mode:lighten"/>
<ellipse cx="1093.5" cy="1190.55" rx="4.5" ry="3.5" fill="#1C0D3B" style="mix-blend-mode:lighten"/>
<ellipse cx="1102.5" cy="670.55" rx="4.5" ry="3.5" fill="#1C0D3B" style="mix-blend-mode:lighten"/>
<ellipse cx="78.5" cy="1183.55" rx="4.5" ry="3.5" fill="#1C0D3B" style="mix-blend-mode:lighten"/>
<ellipse cx="1119.5" cy="1177.55" rx="4.5" ry="3.5" fill="#1C0D3B" style="mix-blend-mode:lighten"/>
<ellipse cx="1128.5" cy="657.55" rx="4.5" ry="3.5" fill="#1C0D3B" style="mix-blend-mode:lighten"/>
<ellipse cx="104.5" cy="1170.55" rx="4.5" ry="3.5" fill="#1C0D3B" style="mix-blend-mode:lighten"/>
<ellipse cx="1219.5" cy="1286.55" rx="4.5" ry="3.5" fill="#1C0D3B" style="mix-blend-mode:lighten"/>
<ellipse cx="1228.5" cy="766.55" rx="4.5" ry="3.5" fill="#1C0D3B" style="mix-blend-mode:lighten"/>
<ellipse cx="204.5" cy="1279.55" rx="4.5" ry="3.5" fill="#1C0D3B" style="mix-blend-mode:lighten"/>
<ellipse cx="920.5" cy="1524.55" rx="4.5" ry="3.5" fill="#1C0D3B" style="mix-blend-mode:lighten"/>
<ellipse cx="929.5" cy="1004.55" rx="4.5" ry="3.5" fill="#1C0D3B" style="mix-blend-mode:lighten"/>
<ellipse cx="280.5" cy="1748.55" rx="4.5" ry="3.5" fill="#1C0D3B" style="mix-blend-mode:lighten"/>
<ellipse cx="617.5" cy="1621.55" rx="4.5" ry="3.5" fill="#1C0D3B" style="mix-blend-mode:lighten"/>
<ellipse cx="827.5" cy="1517.55" rx="4.5" ry="3.5" fill="#1C0D3B" style="mix-blend-mode:lighten"/>
<ellipse cx="836.5" cy="997.55" rx="4.5" ry="3.5" fill="#1C0D3B" style="mix-blend-mode:lighten"/>
<ellipse cx="187.5" cy="1741.55" rx="4.5" ry="3.5" fill="#1C0D3B" style="mix-blend-mode:lighten"/>
<ellipse cx="524.5" cy="1614.55" rx="4.5" ry="3.5" fill="#1C0D3B" style="mix-blend-mode:lighten"/>
<ellipse cx="750.5" cy="1499.55" rx="4.5" ry="3.5" fill="#1C0D3B" style="mix-blend-mode:lighten"/>
<ellipse cx="759.5" cy="979.55" rx="4.5" ry="3.5" fill="#1C0D3B" style="mix-blend-mode:lighten"/>
<ellipse cx="110.5" cy="1723.55" rx="4.5" ry="3.5" fill="#1C0D3B" style="mix-blend-mode:lighten"/>
<ellipse cx="447.5" cy="1596.55" rx="4.5" ry="3.5" fill="#1C0D3B" style="mix-blend-mode:lighten"/>
<ellipse cx="797.5" cy="1585.55" rx="4.5" ry="3.5" fill="#1C0D3B" style="mix-blend-mode:lighten"/>
<ellipse cx="806.5" cy="1065.55" rx="4.5" ry="3.5" fill="#1C0D3B" style="mix-blend-mode:lighten"/>
<ellipse cx="157.5" cy="1809.55" rx="4.5" ry="3.5" fill="#1C0D3B" style="mix-blend-mode:lighten"/>
<ellipse cx="494.5" cy="1682.55" rx="4.5" ry="3.5" fill="#1C0D3B" style="mix-blend-mode:lighten"/>
<ellipse cx="1516.5" cy="1360.55" rx="5.5" ry="4.5" fill="#1C0D3B" style="mix-blend-mode:lighten"/>
<ellipse cx="1525.5" cy="840.55" rx="5.5" ry="4.5" fill="#1C0D3B" style="mix-blend-mode:lighten"/>
<ellipse cx="1525.5" cy="394.55" rx="5.5" ry="4.5" fill="#1C0D3B" style="mix-blend-mode:lighten"/>
<ellipse cx="1361.5" cy="1356.55" rx="5.5" ry="4.5" fill="#1C0D3B" style="mix-blend-mode:lighten"/>
<ellipse cx="1370.5" cy="836.55" rx="5.5" ry="4.5" fill="#1C0D3B" style="mix-blend-mode:lighten"/>
<ellipse cx="1370.5" cy="390.55" rx="5.5" ry="4.5" fill="#1C0D3B" style="mix-blend-mode:lighten"/>
<ellipse cx="1592.5" cy="1202.55" rx="4.5" ry="3.5" fill="#1C0D3B" style="mix-blend-mode:lighten"/>
<ellipse cx="1601.5" cy="682.55" rx="4.5" ry="3.5" fill="#1C0D3B" style="mix-blend-mode:lighten"/>
<ellipse cx="1601.5" cy="236.55" rx="4.5" ry="3.5" fill="#1C0D3B" style="mix-blend-mode:lighten"/>
<ellipse cx="1541.5" cy="1324.55" rx="4.5" ry="3.5" fill="#1C0D3B" style="mix-blend-mode:lighten"/>
<ellipse cx="1550.5" cy="804.55" rx="4.5" ry="3.5" fill="#1C0D3B" style="mix-blend-mode:lighten"/>
<ellipse cx="1550.5" cy="358.55" rx="4.5" ry="3.5" fill="#1C0D3B" style="mix-blend-mode:lighten"/>
<ellipse cx="1748.5" cy="1289.55" rx="4.5" ry="3.5" fill="#1C0D3B" style="mix-blend-mode:lighten"/>
<ellipse cx="1757.5" cy="769.55" rx="4.5" ry="3.5" fill="#1C0D3B" style="mix-blend-mode:lighten"/>
<ellipse cx="1757.5" cy="323.55" rx="4.5" ry="3.5" fill="#1C0D3B" style="mix-blend-mode:lighten"/>
<ellipse cx="1662.5" cy="1190.55" rx="4.5" ry="3.5" fill="#1C0D3B" style="mix-blend-mode:lighten"/>
<ellipse cx="1671.5" cy="670.55" rx="4.5" ry="3.5" fill="#1C0D3B" style="mix-blend-mode:lighten"/>
<ellipse cx="1671.5" cy="224.55" rx="4.5" ry="3.5" fill="#1C0D3B" style="mix-blend-mode:lighten"/>
<ellipse cx="1688.5" cy="1177.55" rx="4.5" ry="3.5" fill="#1C0D3B" style="mix-blend-mode:lighten"/>
<ellipse cx="1697.5" cy="657.55" rx="4.5" ry="3.5" fill="#1C0D3B" style="mix-blend-mode:lighten"/>
<ellipse cx="1697.5" cy="211.55" rx="4.5" ry="3.5" fill="#1C0D3B" style="mix-blend-mode:lighten"/>
<ellipse cx="1788.5" cy="1286.55" rx="4.5" ry="3.5" fill="#1C0D3B" style="mix-blend-mode:lighten"/>
<ellipse cx="1797.5" cy="766.55" rx="4.5" ry="3.5" fill="#1C0D3B" style="mix-blend-mode:lighten"/>
<ellipse cx="1797.5" cy="320.55" rx="4.5" ry="3.5" fill="#1C0D3B" style="mix-blend-mode:lighten"/>
<ellipse cx="1489.5" cy="1524.55" rx="4.5" ry="3.5" fill="#1C0D3B" style="mix-blend-mode:lighten"/>
<ellipse cx="1498.5" cy="1004.55" rx="4.5" ry="3.5" fill="#1C0D3B" style="mix-blend-mode:lighten"/>
<ellipse cx="1498.5" cy="558.55" rx="4.5" ry="3.5" fill="#1C0D3B" style="mix-blend-mode:lighten"/>
<ellipse cx="1319.5" cy="1499.55" rx="4.5" ry="3.5" fill="#1C0D3B" style="mix-blend-mode:lighten"/>
<ellipse cx="1328.5" cy="979.55" rx="4.5" ry="3.5" fill="#1C0D3B" style="mix-blend-mode:lighten"/>
<ellipse cx="1328.5" cy="533.55" rx="4.5" ry="3.5" fill="#1C0D3B" style="mix-blend-mode:lighten"/>
<ellipse cx="1366.5" cy="1585.55" rx="4.5" ry="3.5" fill="#1C0D3B" style="mix-blend-mode:lighten"/>
<ellipse cx="1375.5" cy="1065.55" rx="4.5" ry="3.5" fill="#1C0D3B" style="mix-blend-mode:lighten"/>
<ellipse cx="1375.5" cy="619.55" rx="4.5" ry="3.5" fill="#1C0D3B" style="mix-blend-mode:lighten"/>
<path d="M1210 4.0498L973.5 2372.05M937.5 986.55L774.5 2213.05M869 829.05L651.5 2269.55M1370.5 708.05V1452.05M1516.5 662.55V2190.05M1632 1278.05V1541.05M1745.5 1228.55V1940.05M1295 1158.55C1295 1166.15 1295 1372.38 1295 1474.55" stroke="#1C0D3B"/>
</g>
<defs>
<filter id="filter0_f_578_137" x="0" y="0" width="1806" height="2376.1" filterUnits="userSpaceOnUse" color-interpolation-filters="sRGB">
<feFlood flood-opacity="0" result="BackgroundImageFix"/>
<feBlend mode="normal" in="SourceGraphic" in2="BackgroundImageFix" result="shape"/>
<feGaussianBlur stdDeviation="2" result="effect1_foregroundBlur_578_137"/>
</filter>
</defs>
</svg>
